<?xml version="1.0" encoding="UTF-8" standalone="yes"?>
<!DOCTYPE svg PUBLIC "-//W3C//DTD SVG 1.1//EN" "http://www.w3.org/Graphics/SVG/1.1/DTD/svg11.dtd">
<svg xmlns="http://www.w3.org/2000/svg" xmlns:xlink="http://www.w3.org/1999/xlink" xmlns:serif="http://www.serif.com/" width="100%" height="100%" viewBox="0 0 1600 1300" version="1.1" xml:space="preserve" style="fill-rule:evenodd;clip-rule:evenodd;stroke-linejoin:round;stroke-miterlimit:1.41421;zoom: 1;"><g id="Group" transform="matrix(1,0,0,1,115,205.5)"><g transform="matrix(1.20023,0,0,1.16148,803.902,523.038)"><path d="M-7884.574219,-5817.310547 L-7841.673828,-5817.310547 L-7841.673828,-5927.530273 L-7757.853516,-5817.310547 L-7703.404297,-5817.310547 L-7803.723633,-5945.020508 L-7710.003906,-6048.310547 L-7762.803711,-6048.310547 L-7841.673828,-5962.510742 L-7841.673828,-6048.310547 L-7884.574219,-6048.310547 L-7884.574219,-5817.310547  Z " style="fill:rgb(249,249,250);fill-rule:nonzero;stroke:rgb(239,221,218);stroke-opacity:0.0980392;stroke-width:0.85px;"></path></g><g transform="matrix(1.16642,0,0,1.12876,937.777,-387.366)"><path d="M-10752.928711,5756.632324 L-10813.648438,5756.632324 L-10813.648438,5792.272461 L-10752.928711,5792.272461 L-10752.928711,5852.992188 L-10717.289062,5852.992188 L-10717.289062,5792.272461 L-10656.568359,5792.272461 L-10656.568359,5756.632324 L-10717.289062,5756.632324 L-10717.289062,5695.912598 L-10752.928711,5695.912598 L-10752.928711,5756.632324  Z " style="fill:rgb(249,249,250);fill-rule:nonzero;stroke:rgb(239,221,218);stroke-opacity:0.0980392;stroke-width:0.87px;"></path></g><g transform="matrix(1.14529,0,0,1.10832,-435.908,-262.986)"><path d="M15414.550781,6022.67041 L15414.550781,5880.110352 L15458.770508,6001.550293 L15489.791016,6001.550293 L15534.010742,5880.110352 L15534.010742,6022.67041 L15576.911133,6022.67041 L15576.911133,5791.67041 L15528.730469,5791.67041 L15474.28125,5935.880371 L15419.831055,5791.67041 L15371.650391,5791.67041 L15371.650391,6022.67041 L15414.550781,6022.67041  Z " style="fill:rgb(249,249,250);fill-rule:nonzero;stroke:rgb(239,221,218);stroke-opacity:0.0980392;stroke-width:0.89px;"></path><text stroke="none" style="outline-style: none;" id="text1" stroke-width="1px" x="452.660461px" text-rendering="geometricPrecision" font-family="AmericanTypewriter" fill="#ffffff" font-size="232px" y="407.120331px" transform="" text-anchor="middle">N</text><text stroke="none" style="outline-style: none;" stroke-width="1px" x="452.660461px" text-rendering="geometricPrecision" font-family="AmericanTypewriter" fill="#ffffff" font-size="232px" y="407.120331px" transform="" text-anchor="middle" id="text3">N</text><text stroke="none" style="outline-style: none;" id="text2" stroke-width="1px" x="1531.43457px" text-rendering="geometricPrecision" font-family="AmericanTypewriter" y="1113.031616px" fill="#ffffff" font-size="232px" transform="" text-anchor="middle">M</text><text stroke="none" style="outline-style: none;" id="text4" stroke-width="1px" x="1535.880127px" text-rendering="geometricPrecision" y="422.432922px" font-family="AmericanTypewriter" fill="#ffffff" font-size="232px" transform="" text-anchor="middle">+</text></g></g></svg>